frame=   26 fps=0.0 q=24.0 size=      52kB time=00:00:00.86 bitrate= 489.4kbits/s dup=6 drop=0    
frame=   42 fps= 41 q=22.0 size=      86kB time=00:00:01.40 bitrate= 505.5kbits/s dup=8 drop=0    
frame=   57 fps= 37 q=24.0 size=     115kB time=00:00:01.90 bitrate= 494.2kbits/s dup=9 drop=0    
frame=   71 fps= 35 q=21.0 size=     132kB time=00:00:02.36 bitrate= 456.7kbits/s dup=10 drop=0    
frame=   87 fps= 34 q=20.0 size=     151kB time=00:00:02.90 bitrate= 425.5kbits/s dup=12 drop=0    
frame=  104 fps= 34 q=20.0 size=     193kB time=00:00:03.46 bitrate= 456.7kbits/s dup=14 drop=0    
frame=  118 fps= 33 q=21.0 size=     230kB time=00:00:03.93 bitrate= 480.0kbits/s dup=15 drop=0    
frame=  133 fps= 33 q=21.0 size=     263kB time=00:00:04.43 bitrate= 485.4kbits/s dup=16 drop=0    
frame=  149 fps= 32 q=20.0 size=     290kB time=00:00:04.96 bitrate= 478.5kbits/s dup=18 drop=0    
frame=  163 fps= 32 q=20.0 size=     324kB time=00:00:05.43 bitrate= 489.2kbits/s dup=19 drop=0    
frame=  179 fps= 32 q=20.0 size=     351kB time=00:00:05.96 bitrate= 481.4kbits/s dup=21 drop=0    
frame=  194 fps= 32 q=20.0 size=     388kB time=00:00:06.46 bitrate= 491.6kbits/s dup=22 drop=0    
frame=  209 fps= 32 q=19.0 size=     415kB time=00:00:06.96 bitrate= 487.7kbits/s dup=24 drop=0    
frame=  224 fps= 31 q=22.0 size=     463kB time=00:00:07.46 bitrate= 508.3kbits/s dup=25 drop=0    
frame=  240 fps= 31 q=23.0 size=     528kB time=00:00:08.00 bitrate= 540.3kbits/s dup=27 drop=0    
frame=  255 fps= 31 q=23.0 size=     573kB time=00:00:08.50 bitrate= 552.4kbits/s dup=28 drop=0    
frame=  272 fps= 31 q=26.0 size=     630kB time=00:00:09.06 bitrate= 569.1kbits/s dup=30 drop=0    
frame=  286 fps= 31 q=26.0 size=     673kB time=00:00:09.53 bitrate= 578.4kbits/s dup=32 drop=0    
frame=  302 fps= 31 q=27.0 size=     729kB time=00:00:10.06 bitrate= 593.0kbits/s dup=36 drop=0    
frame=  318 fps= 31 q=24.0 size=     769kB time=00:00:10.60 bitrate= 594.0kbits/s dup=40 drop=0    
frame=  332 fps= 31 q=28.0 size=     805kB time=00:00:11.06 bitrate= 595.6kbits/s dup=42 drop=0    
frame=  348 fps= 31 q=27.0 size=     838kB time=00:00:11.60 bitrate= 592.1kbits/s dup=44 drop=0    
frame=  363 fps= 31 q=27.0 size=     876kB time=00:00:12.10 bitrate= 592.9kbits/s dup=47 drop=0    
frame=  378 fps= 31 q=28.0 size=     909kB time=00:00:12.60 bitrate= 590.9kbits/s dup=50 drop=0    
frame=  393 fps= 31 q=29.0 size=     952kB time=00:00:13.10 bitrate= 595.6kbits/s dup=51 drop=0    
frame=  409 fps= 31 q=30.0 size=     985kB time=00:00:13.63 bitrate= 592.1kbits/s dup=53 drop=0    
frame=  425 fps= 31 q=26.0 size=    1033kB time=00:00:14.16 bitrate= 597.5kbits/s dup=57 drop=0    
frame=  439 fps= 31 q=28.0 size=    1056kB time=00:00:14.63 bitrate= 590.9kbits/s dup=59 drop=0    
frame=  454 fps= 31 q=28.0 size=    1088kB time=00:00:15.13 bitrate= 589.0kbits/s dup=60 drop=0    
frame=  469 fps= 31 q=30.0 size=    1131kB time=00:00:15.63 bitrate= 592.7kbits/s dup=62 drop=0    
frame=  485 fps= 31 q=29.0 size=    1172kB time=00:00:16.16 bitrate= 594.0kbits/s dup=64 drop=0    
frame=  500 fps= 31 q=31.0 size=    1211kB time=00:00:16.66 bitrate= 595.4kbits/s dup=66 drop=0    
frame=  515 fps= 31 q=28.0 size=    1251kB time=00:00:17.16 bitrate= 596.9kbits/s dup=69 drop=0    
frame=  530 fps= 31 q=31.0 size=    1286kB time=00:00:17.66 bitrate= 596.2kbits/s dup=71 drop=0    
frame=  546 fps= 31 q=31.0 size=    1327kB time=00:00:18.20 bitrate= 597.2kbits/s dup=73 drop=0    
frame=  562 fps= 31 q=29.0 size=    1361kB time=00:00:18.73 bitrate= 595.2kbits/s dup=75 drop=0    
frame=  576 fps= 31 q=28.0 size=    1379kB time=00:00:19.20 bitrate= 588.4kbits/s dup=76 drop=0    
frame=  592 fps= 31 q=27.0 size=    1384kB time=00:00:19.73 bitrate= 574.7kbits/s dup=78 drop=0    
frame=  607 fps= 31 q=27.0 size=    1392kB time=00:00:20.23 bitrate= 563.5kbits/s dup=79 drop=0    
frame=  623 fps= 31 q=26.0 size=    1394kB time=00:00:20.76 bitrate= 549.8kbits/s dup=81 drop=0    